<?xml version="1.0" encoding="UTF-8"?>
<svg width="37px" height="37px" viewBox="0 0 37 37" version="1.1" xmlns="http://www.w3.org/2000/svg" xmlns:xlink="http://www.w3.org/1999/xlink">
    <!-- Generator: Sketch 62 (91390) - https://sketch.com -->
    <title>logo_altermind</title>
    <desc>Created with Sketch.</desc>
    <g id="WIRE-2" stroke="none" stroke-width="1" fill="none" fill-rule="evenodd">
        <g id="our-missions" transform="translate(-99.000000, -102.000000)" fill="#ECECE8" fill-rule="nonzero" stroke="#ECECE8">
            <g id="NAV" transform="translate(100.000000, 103.000000)">
                <g id="logo_altermind">
                    <path d="M17.3381503,20 C17.3852108,21.0244466 17.8014217,21.9984581 18.5115607,22.746 C19.367341,23.666 20.2777457,24.53 21.4693642,25 C22.6944713,25.4965654 24.0652127,25.51159 25.3011561,25.042 C26.6930636,24.508 27.8806358,23.576 29.3231214,23.152 C31.0212116,22.6540465 32.8343637,22.6939093 34.5083815,23.266 C34.6236994,23.306 34.6742775,23.124 34.5589595,23.084 C33.2434959,22.6361504 31.838319,22.5078714 30.4621387,22.71 C29.033815,22.91 27.8320809,23.534 26.5817919,24.216 C25.3315029,24.898 24.0184971,25.392 22.5537572,25.118 C21.9008524,24.994006 21.2754282,24.7563115 20.7066474,24.416 C20.1493307,24.0598247 19.6383763,23.6373283 19.1852601,23.158 C18.7439071,22.7619155 18.3556819,22.311586 18.0300578,21.818 C17.7234636,21.2582668 17.5517583,20.636104 17.5283237,20 C17.5283237,19.888 17.3260116,19.886 17.3381503,20 Z" id="Path"></path>
                    <path d="M22.5416185,25.382 C24.0731214,26.212 23.8910405,28.538 24.4251445,29.982 C24.9956647,31.518 26.5008671,32.244 28.0202312,32.6 C28.1395954,32.628 28.1901734,32.446 28.0708092,32.418 C27.2679606,32.2562335 26.5045744,31.9417345 25.8231214,31.492 C25.0300578,30.932 24.6092486,30.138 24.4069364,29.21 C24.1034682,27.85 23.9881503,25.842 22.5072254,25.138 C22.3959538,25.086 22.3049133,25.25 22.4101156,25.302 L22.5416185,25.382 Z" id="Path"></path>
                    <path d="M26.9277457,24.524 C27.6641618,25.346 28.4471098,26.206 29.4869942,26.65 C29.9632132,26.8374303 30.4679564,26.9442569 30.9800578,26.966 C31.6052023,27.016 32.2424855,27.046 32.7765896,27.406 C32.8777457,27.476 32.9789017,27.312 32.8736994,27.244 C31.9450867,26.6 30.7514451,26.92 29.7398844,26.546 C28.6433526,26.146 27.6803468,25.07 26.9257225,24.226 C26.8447977,24.136 26.7092486,24.27 26.7901734,24.36 L26.9277457,24.524 Z" id="Path"></path>
                    <path d="M16.6543353,25.2 C16.7806788,25.9193817 17.1348955,26.5804998 17.665896,27.088 C18.1554913,27.55 18.7421965,27.888 19.2843931,28.288 C19.9108074,28.7115378 20.378653,29.3272656 20.6156069,30.04 C20.8765896,30.886 21.050578,31.756 21.3439306,32.592 C21.6372832,33.428 22.0459538,34.268 22.7985549,34.792 C22.899711,34.862 23.0008671,34.698 22.8936416,34.628 C22.1612717,34.12 21.7748555,33.276 21.499711,32.462 C21.2245665,31.648 21.0566474,30.836 20.8118497,30.03 C20.6223111,29.3941862 20.2480585,28.8274005 19.7355491,28.4 C19.2398844,27.98 18.667341,27.658 18.1575145,27.258 C17.4325223,26.6670376 16.9329854,25.8493996 16.7413295,24.94 C16.7190751,24.82 16.5390173,24.87 16.5572254,24.99 L16.6543353,25.2 Z" id="Path"></path>
                    <path d="M17.3381503,20.02 C17.3045036,20.6067901 17.1459412,21.1799505 16.8728324,21.702 C16.6235172,22.1261144 16.316511,22.5144028 15.9604046,22.856 C15.0257225,23.808 14.0728324,24.636 12.7557803,25.008 C11.3395954,25.408 10.0043353,25.128 8.72572254,24.472 C7.44710983,23.816 6.31618497,23.104 4.91618497,22.8 C3.37080431,22.478609 1.76619104,22.5774488 0.273121387,23.086 C0.157803468,23.126 0.208381503,23.308 0.323699422,23.268 C1.82083625,22.7579684 3.43204026,22.6700187 4.97687861,23.014 C5.75325067,23.1975327 6.50158178,23.4820112 7.20231214,23.86 C7.83757225,24.196 8.45462428,24.574 9.11213873,24.86 C10.2931177,25.4198021 11.6428738,25.5239241 12.8973988,25.152 C14.1780347,24.768 15.1228324,23.952 16.033237,23.034 C16.4442127,22.6499674 16.7935112,22.2061944 17.0690751,21.718 C17.336867,21.1814682 17.4930323,20.5972704 17.5283237,20 C17.5283237,19.906 17.3543353,19.914 17.3401734,20 L17.3381503,20.02 Z" id="Path"></path>
                    <path d="M12.4482659,25.088 C10.967341,25.786 10.9875723,27.722 10.684104,29.088 C10.4817919,29.996 10.0771676,30.784 9.30231214,31.342 C8.61198762,31.8066396 7.83474386,32.1303032 7.01618497,32.294 C6.89682081,32.322 6.94739884,32.504 7.06676301,32.476 C8.58612717,32.12 10.1014451,31.396 10.6618497,29.858 C11.1959538,28.412 10.8843931,26.038 12.5453757,25.258 C12.6566474,25.206 12.5595376,25.042 12.4482659,25.094 L12.4482659,25.088 Z" id="Path"></path>
                    <path d="M8.09248555,24.308 C7.33786127,25.152 6.44971098,26.142 5.35317919,26.546 C4.3416185,26.92 3.12774566,26.616 2.20924855,27.244 C2.11011561,27.312 2.20924855,27.476 2.30635838,27.406 C2.82630058,27.054 3.44739884,27.006 4.05635838,26.97 C4.58415687,26.9500692 5.10472357,26.8418711 5.59595376,26.65 C6.63583815,26.206 7.48959538,25.264 8.22601156,24.45 C8.31300578,24.352 8.17745665,24.218 8.09248555,24.308 Z" id="Path"></path>
                    <path d="M17.350289,20.682 C17.1258403,21.3098175 16.9393836,21.9502829 16.7919075,22.6 C16.6113537,23.5701973 16.5132273,24.5536273 16.4985549,25.54 C16.4621387,27.762 16.6219653,30.064 15.5092486,32.086 C14.9553639,33.0988018 14.1663203,33.967249 13.2069364,34.62 C13.1057803,34.688 13.2069364,34.852 13.3040462,34.784 C14.9641132,33.6554816 16.1035206,31.9220273 16.4722543,29.964 C16.6907514,28.816 16.6887283,27.644 16.6907514,26.48 C16.6747351,25.3048218 16.75525,24.1302975 16.9315029,22.968 C17.0753772,22.2083526 17.2782908,21.4608034 17.5384393,20.732 C17.5728324,20.6160762 17.3988439,20.566 17.350289,20.682 Z" id="Path"></path>
                    <path d="M17.5849711,16.642 L17.5849711,0.1 C17.5849711,0.044771525 17.539682,0 17.483815,0 C17.4279481,0 17.382659,0.044771525 17.382659,0.1 L17.382659,16.642 C17.382659,16.6972285 17.4279481,16.742 17.483815,16.742 C17.539682,16.742 17.5849711,16.6972285 17.5849711,16.642 Z" id="Path"></path>
                    <path d="M17.5748555,16.444 C17.382659,13.816 15.9320809,11.2 13.3526012,10.2 C12.1282218,9.70392278 10.7585433,9.68818662 9.52283237,10.156 C8.1349711,10.686 6.94739884,11.6 5.50491329,12.042 C3.80634196,12.5372991 1.99382119,12.496751 0.319653179,11.926 C0.202312139,11.888 0.151734104,12.07 0.267052023,12.108 C1.58260148,12.5553677 2.98749843,12.6843071 4.36387283,12.484 C5.79219653,12.284 6.99393064,11.66 8.24421965,10.978 C9.49450867,10.296 10.8075145,9.8 12.2742775,10.076 C13.5985411,10.334296 14.7899721,11.0416922 15.6427746,12.076 C16.6567377,13.3227245 17.2635069,14.8446308 17.382659,16.44 C17.382659,16.4952285 17.4279481,16.54 17.483815,16.54 C17.539682,16.54 17.5849711,16.4952285 17.5849711,16.44 L17.5748555,16.444 Z" id="Path"></path>
                    <path d="M12.5433526,9.944 C10.8843931,9.162 11.1959538,6.786 10.6598266,5.344 C10.0852601,3.8 8.58208092,3.08 7.06069364,2.722 C6.94132948,2.694 6.89075145,2.876 7.01011561,2.904 C7.81242335,3.06750429 8.57548293,3.38186874 9.25780347,3.83 C10.0508671,4.39 10.4716763,5.186 10.6739884,6.112 C10.9774566,7.472 10.9572254,9.402 12.4401734,10.112 C12.5291908,10.112 12.6424855,10.008 12.5352601,9.956 L12.5433526,9.944 Z" id="Path"></path>
                    <path d="M8.23410405,10.764 C7.49971098,9.944 6.63381503,8.988 5.59393064,8.544 C5.11787684,8.35832676 4.6141,8.25156005 4.10289017,8.228 C3.47774566,8.18 2.84046243,8.15 2.30433526,7.788 C2.20317919,7.72 2.10202312,7.884 2.20924855,7.952 C3.13583815,8.578 4.33757225,8.276 5.35115607,8.65 C6.44768786,9.05 7.34393064,10.05 8.09855491,10.898 C8.18150289,11 8.3150289,10.856 8.23410405,10.764 Z" id="Path"></path>
                    <path d="M17.5809249,9.618 C17.486241,8.95553962 17.2184746,8.32893049 16.8040462,7.8 C16.4398844,7.358 15.982659,7 15.6387283,6.556 C15.1734104,5.922 14.9710983,5.164 14.7687861,4.4 C14.5905389,3.65313475 14.3641617,2.91830201 14.0910405,2.2 C13.8078035,1.506 13.4193642,0.846 12.7881503,0.4 C12.6869942,0.33 12.5858382,0.494 12.6930636,0.564 C13.9190751,1.412 14.2245665,3.116 14.5786127,4.454 C14.7606936,5.146 14.9528902,5.854 15.3473988,6.454 C15.6571474,6.8781582 16.010369,7.26956683 16.4014451,7.622 C16.9458668,8.17768952 17.2997442,8.88855034 17.4130058,9.654 C17.4352601,9.774 17.5950867,9.76 17.5768786,9.64 L17.5809249,9.618 Z" id="Path"></path>
                    <path d="M17.5789017,16.472 C17.8763006,13.744 19.5190751,10.978 22.3271676,10.188 C23.7433526,9.788 25.0765896,10.068 26.3552023,10.724 C27.633815,11.38 28.7647399,12.092 30.1647399,12.386 C31.7124999,12.7135347 33.3213248,12.6174169 34.8179191,12.108 C34.933237,12.07 34.8846821,11.888 34.767341,11.926 C33.2705374,12.43771 31.658856,12.5256858 30.1141618,12.18 C29.3372291,11.998257 28.5886619,11.7136887 27.8887283,11.334 C27.2514451,10.998 26.6364162,10.622 25.9789017,10.334 C24.7972406,9.7743462 23.4471617,9.669542 22.1916185,10.04 C20.9524452,10.4159165 19.8667491,11.1725426 19.0921965,12.2 C18.1919075,13.444 17.4736994,14.938 17.3887283,16.466 C17.3887283,16.588 17.5708092,16.588 17.5789017,16.466 L17.5789017,16.472 Z" id="Path"></path>
                    <path d="M22.6346821,10.106 C24.1156069,9.408 24.0872832,7.484 24.3887283,6.118 C24.5910405,5.208 24.9956647,4.422 25.7725434,3.864 C26.4627737,3.4001185 27.2390598,3.07588766 28.0566474,2.91 C28.1780347,2.882 28.1274566,2.7 28.0060694,2.728 C26.4867052,3.086 24.9713873,3.81 24.4130058,5.348 C23.8768786,6.792 24.1884393,9.168 22.5274566,9.948 C22.416185,10 22.5132948,10.162 22.6245665,10.11 L22.6346821,10.106 Z" id="Path"></path>
                    <path d="M27.0572254,10.8 C27.8138728,9.958 28.6271676,9.05 29.7236994,8.646 C30.7352601,8.272 31.9491329,8.574 32.8676301,7.948 C32.9687861,7.88 32.8676301,7.716 32.7705202,7.784 C32.250578,8.136 31.6315029,8.184 31.0205202,8.222 C30.4929519,8.24220409 29.9725419,8.34969362 29.4809249,8.54 C28.4430636,8.984 27.5893064,9.928 26.8508671,10.74 C26.7699422,10.832 26.9054913,10.966 26.9864162,10.874 L27.0572254,10.8 Z" id="Path"></path>
                    <path d="M17.5809249,6.942 C17.7593866,6.46494986 18.0217034,6.02282123 18.3557803,5.636 C18.7520117,5.14599377 19.181932,4.68356489 19.6424855,4.252 C20.4701262,3.44856329 21.3663178,2.71718668 22.3210983,2.066 C22.4222543,1.998 22.3210983,1.834 22.2239884,1.902 C21.2363338,2.57531708 20.3102498,3.33288006 19.4563584,4.166 C18.994487,4.6025833 18.5638731,5.07037743 18.1676301,5.566 C17.8354924,5.960562 17.5753491,6.40925629 17.3988439,6.892 C17.3604046,7.008 17.5445087,7.058 17.582948,6.942 L17.5809249,6.942 Z" id="Path"></path>
                    <path d="M13.6520231,10.588 C13.6277457,11.37 13.5973988,12.236 13.0653179,12.866 C12.533237,13.496 11.734104,13.784 10.9895954,14 C10.3911215,14.1630093 9.82286758,14.4195822 9.30635838,14.76 C8.81614367,15.0712454 8.40162213,15.4858103 8.09248555,15.974 C8.07549994,16.0032958 8.07561439,16.0393243 8.09278578,16.0685141 C8.10995717,16.0977038 8.14157677,16.1156201 8.17573376,16.1155146 C8.20989076,16.115408 8.2413959,16.0972958 8.2583815,16.068 C8.58612717,15.488 9.18901734,15.042 9.75346821,14.706 C10.3806358,14.334 11.0907514,14.214 11.7604046,13.938 C12.4300578,13.662 13.0653179,13.312 13.4294798,12.694 C13.7936416,12.076 13.834104,11.294 13.8523121,10.588 C13.8523121,10.5360852 13.8097404,10.494 13.7572254,10.494 C13.7046243,10.494 13.6560694,10.47 13.6560694,10.52 L13.6520231,10.588 Z" id="Path"></path>
                    <path d="M21.3054913,10.51 C21.3257225,11.222 21.3540462,11.986 21.7283237,12.616 C22.1026012,13.246 22.7398844,13.594 23.3973988,13.862 C24.0549133,14.13 24.7771676,14.262 25.4043353,14.628 C25.9687861,14.966 26.5716763,15.41 26.899422,15.992 C26.9601156,16.098 27.1239884,15.992 27.0653179,15.896 C26.7525732,15.4064832 26.3329741,14.992363 25.8372832,14.684 C25.3216321,14.3479412 24.7546615,14.096058 24.1580925,13.938 C23.4196532,13.708 22.5962428,13.394 22.0843931,12.79 C21.5725434,12.186 21.5199422,11.292 21.4956647,10.512 C21.4956647,10.392 21.2933526,10.39 21.3054913,10.512 L21.3054913,10.51 Z" id="Path"></path>
                </g>
            </g>
        </g>
    </g>
</svg>