<?xml version="1.0" encoding="UTF-8"?>
<svg width="13px" height="13px" viewBox="0 0 13 13" version="1.1" xmlns="http://www.w3.org/2000/svg" xmlns:xlink="http://www.w3.org/1999/xlink">
    <!-- Generator: Sketch 62 (91390) - https://sketch.com -->
    <title>Style</title>
    <desc>Created with Sketch.</desc>
    <g id="WIRE-2" stroke="none" stroke-width="1" fill="none" fill-rule="evenodd">
        <g id="People" transform="translate(-243.000000, -1044.000000)" fill="#001F1E">
            <g id="SEARCH-BAR" transform="translate(243.000000, 1039.000000)">
                <g id="Search-someone">
                    <g id="Group-3">
                        <g id="Outlined/UI/search" transform="translate(0.000000, 5.000000)">
                            <path d="M13,12.3346633 L8.31453011,7.64919339 C9.89343842,5.71582943 9.67942316,2.88409311 7.82787221,1.20999434 C5.97632126,-0.46410444 3.1374068,-0.392705843 1.37235048,1.37235048 C-0.392705843,3.1374068 -0.46410444,5.97632126 1.20999434,7.82787221 C2.88409311,9.67942316 5.71582943,9.89343842 7.64919339,8.31453011 L12.3346633,13 L13,12.3346633 Z M0.953656921,4.70203283 C0.953656921,2.63186198 2.63186198,0.953656921 4.70203283,0.953656921 C6.77220368,0.953656921 8.45040874,2.63186198 8.45040874,4.70203283 C8.45040874,6.77220368 6.77220368,8.45040874 4.70203283,8.45040874 C3.70790173,8.45040874 2.75448765,8.0554917 2.05153081,7.35253485 C1.34857396,6.64957801 0.953656921,5.69616393 0.953656921,4.70203283 L0.953656921,4.70203283 Z" id="Style"></path>
                        </g>
                    </g>
                </g>
            </g>
        </g>
    </g>
</svg>